<?xml version="1.0" encoding="UTF-8"?>
<svg id="Layer_1" data-name="Layer 1" xmlns="http://www.w3.org/2000/svg" viewBox="0 0 69.55 57.82">
  <defs>
    <style>
      .cls-1 {
        fill: #b21f24;
        stroke-width: 0px;
      }
    </style>
  </defs>
  <path class="cls-1" d="M54.62,1l-28.59,26.05c-1.16-.45-2.6-.65-3.83-.62-2.16.12-3.91,1.05-5.03,2.57l-.19.25-.2-.32c-1.15-1.63-2.91-2.55-5.09-2.83-2.71-.3-5.6.66-7.62,2.5s-3.24,4.63-3.19,7.35c.04,2.06.99,4.13,2.39,5.29l.3.23-.32.2c-1.53.89-2.76,2.77-3.12,4.86-.48,2.87.52,5.73,2.44,7.84s4.71,3.33,7.57,3.16c2.16-.12,4.13-1.17,5.13-2.66l.23-.3.2.32c1.07,1.45,2.99,2.64,5.04,2.87,2.71.3,5.65-.7,7.62-2.5,2.02-1.84,3.2-4.68,3.19-7.35-.03-2.15-.82-4.03-2.34-5.33l-.3-.23.32-.2c1.62-.98,2.71-2.64,3.03-4.77.25-1.57-.2-3.26-.74-4.77l14.62-13.31c.87-.79,2.15-.87,2.98.05s.73,2.18-.18,3.02l-1.33,1.21,7.1,7.79,5.82-5.3-5.72-6.28c-.79-.87-.73-2.18.14-2.98s2.32-.86,3.11.01l5.72,6.28,5.77-5.26-7.1-7.79-1.28,1.17c-.87.79-2.19.82-3.02-.1s-.69-2.14.23-2.97l1.56-1.42c1.6-1.46,1.72-3.91.26-5.52-1.46-1.52-4-1.63-5.56-.22M23.52,40.48c-.6.54-1.36.9-2.15,1.04l-.12,1.71c.74.17,1.43.46,1.93,1.01,1.38,1.51,1.27,3.88-.24,5.25-.73.67-1.67,1.02-2.68.93-.96-.04-1.86-.48-2.53-1.21-.42-.46-.82-1.18-.87-1.97l-1.71-.04c-.26.82-.64,1.51-1.14,1.96-.73.67-1.63,1.06-2.63.97-.96-.04-1.95-.49-2.62-1.22s-1.02-1.67-.93-2.68c.04-.96.48-1.86,1.21-2.53.64-.58,1.44-.81,2.15-.87l.12-1.71c-.61-.12-1.42-.55-2.01-1.19-.67-.73-1.02-1.67-.97-2.63s.48-1.86,1.21-2.53,1.67-1.02,2.68-1.02c.96.04,1.86.48,2.53,1.21.5.55.78,1.22.95,2.15l1.71.04c.13-.96.56-1.6,1.15-2.14.73-.67,1.67-1.02,2.63-.97s1.86.48,2.53,1.21c1.38,1.51,1.31,3.83-.2,5.21"/>
</svg>