<?xml version="1.0" encoding="UTF-8"?>
<svg id="Layer_1" data-name="Layer 1" xmlns="http://www.w3.org/2000/svg" viewBox="0 0 56.19 48.76">
  <defs>
    <style>
      .cls-1 {
        fill: #756840;
      }

      .cls-1, .cls-2 {
        stroke-width: 0px;
      }

      .cls-2 {
        fill: #9a9175;
      }
    </style>
  </defs>
  <path class="cls-2" d="M8.48,25.65L.86,39.19c-1.4,2.48-1.07,5.48.84,7.55,1.24,1.33,2.81,2.02,4.44,2.02.95,0,1.97-.23,2.86-.69l15.53-8.13-9.14-4.79c-3.25-1.7-5.55-4.64-6.57-8.1-.14-.46-.25-.93-.33-1.39"/>
  <path class="cls-1" d="M28.21,0c3.14,0,6.01,1.67,7.58,4.5l19.54,34.69c1.4,2.48,1.07,5.47-.84,7.55-1.24,1.33-2.81,2.02-4.44,2.02-.95,0-1.97-.23-2.86-.69l-30.27-15.85c-2.41-1.27-4.15-3.46-4.94-6.11-.79-2.65-.45-5.47.9-7.9l7.69-13.72c1.63-2.82,4.44-4.5,7.64-4.5"/>
</svg>