<?xml version="1.0" encoding="UTF-8"?>
<svg id="Layer_1" data-name="Layer 1" xmlns="http://www.w3.org/2000/svg" viewBox="0 0 54.74 54.74">
  <defs>
    <style>
      .cls-1 {
        fill: #f58023;
      }

      .cls-1, .cls-2 {
        stroke-width: 0px;
      }

      .cls-2 {
        fill: #fff;
      }
    </style>
  </defs>
  <path class="cls-2" d="M20.12,10.08c-7.3,0-13.3,6-13.3,13.3s5.9,13.3,13.3,13.3,13.3-5.9,13.3-13.3-6-13.3-13.3-13.3"/>
  <path class="cls-1" d="M40.95,31.31h-5.71c.2-.79.2-1.58-.39-2.56l-9.25-16.15c-1.38-2.36-2.76-4.13-3.94-5.51h0c3.74,1.97,11.03,6.1,25.2,14.37l.79.39c2.56,1.58,4.13,3.94,3.74,5.51-.59,2.56-4.33,3.94-10.44,3.94M22.45,47.06l-.79.59c-2.56,1.58-5.51,1.58-6.69.39-1.58-1.58-.79-5.51,2.17-10.83l2.76-4.92c.59.59,1.38.98,2.36.98h18.51c2.76,0,4.92-.2,6.89-.79h0c-3.54,2.36-10.83,6.5-25.2,14.57M12.6,13.19v-.98c0-2.95,1.18-5.51,2.95-5.91,2.17-.59,5.32,2.17,8.27,7.29l2.76,4.92c-.79.2-1.58.79-1.97,1.58l-9.25,15.95c-1.38,2.36-2.36,4.33-2.76,6.3h0V13.19M27.37,0C12.21,0,0,12.21,0,27.37s12.21,27.37,27.37,27.37,27.37-12.21,27.37-27.37S42.53,0,27.37,0"/>
</svg>