<?xml version="1.0" encoding="UTF-8"?>
<svg id="Layer_1" data-name="Layer 1" xmlns="http://www.w3.org/2000/svg" viewBox="0 0 50.24 50.24">
  <defs>
    <style>
      .cls-1 {
        fill: #010101;
        stroke-width: 0px;
      }
    </style>
  </defs>
  <path class="cls-1" d="M30.46,18.24h-10.66c-.84,0-1.52.69-1.52,1.53v10.65c0,.84.68,1.53,1.52,1.53h0s10.66,0,10.66,0c.84,0,1.52-.68,1.52-1.53v-10.64c0-.85-.68-1.53-1.52-1.53Z"/>
  <path class="cls-1" d="M41.85,0H8.4C3.76,0,0,3.76,0,8.4v33.45c0,4.64,3.76,8.4,8.4,8.4h33.45c4.64,0,8.4-3.76,8.4-8.4V8.4c0-4.64-3.76-8.4-8.4-8.4ZM41.11,38.46c0,1.46-1.19,2.65-2.65,2.65H11.79c-1.47,0-2.65-1.19-2.65-2.65V11.79c0-1.47,1.19-2.65,2.65-2.65h26.67c1.46,0,2.65,1.19,2.65,2.65v26.67Z"/>
</svg>