<?xml version="1.0" encoding="UTF-8"?>
<svg id="Layer_1" data-name="Layer 1" xmlns="http://www.w3.org/2000/svg" viewBox="0 0 51.9 51.9">
  <defs>
    <style>
      .cls-1 {
        fill: #dd2226;
      }

      .cls-1, .cls-2 {
        stroke-width: 0px;
      }

      .cls-2 {
        fill: #fff;
      }
    </style>
  </defs>
  <path class="cls-1" d="M0,51.9h51.9V0H0v51.9Z"/>
  <path class="cls-2" d="M44.73,31.93c0-2.09-.86-3.3-2.45-3.3s-2.45,1.21-2.45,3.3.85,3.3,2.45,3.3,2.45-1.2,2.45-3.3M46.66,31.93c0,2.57-1.83,4.37-4.38,4.37s-4.38-1.8-4.38-4.37,1.85-4.37,4.38-4.37,4.38,1.81,4.38,4.37M33.42,32.31c0,.24.04.39.13.58h1.4v2.09c-.46.19-.92.27-1.39.27-1.7,0-2.58-1.21-2.58-3.31s.88-3.31,2.49-3.31c1.07,0,1.7.53,2.06,1.45l.13.33h.85v-2.11c-1.06-.51-2.01-.73-3.12-.73-2.59,0-4.34,1.73-4.34,4.38s1.7,4.36,4.34,4.36c1.05,0,2.13-.29,3.3-.87v-3.68h-3.13c-.09.19-.13.33-.13.55M26.25,30.16c0-.86-.53-1.32-1.59-1.32h-1.39v2.65h1.39c1.05,0,1.59-.48,1.59-1.33M17.03,32.57l-1.16-3.12-1.15,3.12h2.31ZM28.54,35.14c.07.13.11.28.11.48s-.03.35-.11.48c-.26.03-.59.06-.92.06-1.14,0-1.7-.47-1.83-1.57l-.05-.41c-.14-1.19-.53-1.65-1.83-1.65h-.65v2.51h1.12v1.02h-7.41v-1.02h.97l-.54-1.47h-3.06l-.54,1.47h.99v1.02h-3.12v-1.02h.82l2.89-7.22h1.57l2.95,7.22h1.63v-6.2h-1v-1.03h4.74c1.68,0,2.78.84,2.78,2.18s-1.1,2.04-2.16,2.09v.03c1.07.08,1.51.68,1.61,1.61l.05.44c.07.68.21.99.75.99.09,0,.18-.01.25-.02M10.58,28.85c.79,0,1.06.34,1.32,1.33l.08.32h.85v-2.67h-7.1v1.03h1v6.2h-1v1.02h3.93v-1.02h-1.18v-2.4h2.43c.09-.2.13-.35.13-.59s-.03-.37-.13-.57h-2.43v-2.64h2.1ZM46.38,21.27c0-1.3-.79-2.19-2.27-2.53l-1.5-.34c-.87-.2-1.24-.54-1.24-1.12,0-.7.55-1.13,1.64-1.13s1.72.39,1.97,1.31l.11.4h.85v-2.04c-.95-.48-1.97-.73-2.99-.73-2.01,0-3.31.97-3.31,2.52,0,1.2.75,2.09,2.2,2.4l1.5.33c.95.21,1.31.59,1.31,1.21,0,.77-.58,1.19-1.73,1.19-1.31,0-1.98-.52-2.27-1.51l-.15-.51h-.85v2.31c1.07.53,2.1.77,3.48.77,1.98,0,3.28-.99,3.28-2.53M38.84,20.75h-.85l-.09.41c-.24,1.05-.57,1.38-1.34,1.38h-1.64v-6.2h1.12v-1.03h-3.88v1.03h1v6.2h-1v1.03h6.68v-2.82ZM31.41,20.75h-.85l-.09.41c-.24,1.05-.57,1.38-1.34,1.38h-1.64v-6.2h1.12v-1.03h-3.88v1.03h1v6.2h-1v1.03h6.68v-2.82ZM7.43,23.57l-2.07-7.22h-.94v-1.03h3.84v1.03h-1.11l1.38,4.97,1.65-6h1.7l1.68,6.01,1.36-4.98h-1.15v-1.03h9.99v2.67h-.85l-.08-.32c-.26-.99-.53-1.33-1.32-1.33h-1.96v2.49h2.37c.09.2.13.34.13.57,0,.24-.03.39-.13.59h-2.37v2.56h2.04c.77,0,1.11-.33,1.34-1.38l.09-.41h.85v2.82h-7.08v-1.03h1v-6.2h-1.63l-2.06,7.22h-1.64l-1.67-5.99-1.72,5.99h-1.64Z"/>
</svg>