<?xml version="1.0" encoding="UTF-8"?>
<svg id="Layer_1" data-name="Layer 1" xmlns="http://www.w3.org/2000/svg" viewBox="0 0 51.53 51.55">
  <defs>
    <style>
      .cls-1 {
        fill: #2e6fb7;
      }

      .cls-1, .cls-2 {
        stroke-width: 0px;
      }

      .cls-2 {
        fill: #fff;
      }
    </style>
  </defs>
  <path id="logo-blue-box-small-45-9x45-a" class="cls-2" d="M51.53,51.53H0V0h51.53v51.53Z"/>
  <path class="cls-1" d="M51.53,27.91V.02H0v51.53h51.53v-15.03c-.11,0,0-8.61,0-8.61"/>
  <path class="cls-2" d="M45.22,25.04h3.9v-9.07h-4.25v1.26l-.8-1.26h-3.67v1.61l-.69-1.61h-6.77c-.23,0-.46.11-.69.11s-.34.11-.57.23-.34.11-.57.23v-.57H11.71l-.57,1.49-.57-1.49h-4.59v1.61l-.69-1.61H1.61l-1.61,3.9v5.16h2.64l.46-1.26h.92l.46,1.26h20.2v-1.15l.8,1.15h5.62v-.69c.11.11.34.11.46.23s.34.11.46.23c.23.11.46.11.69.11h4.13l.46-1.26h.92l.46,1.26h5.62v-1.15s.92,1.26.92,1.26ZM51.53,36.52v-8.49h-31.56l-.8,1.15-.8-1.15h-9.18v9.07h9.18l.8-1.15.8,1.15h5.74v-1.95h-.23c.8,0,1.49-.11,2.07-.34v2.41h4.13v-1.15l.8,1.15h17.1c.69-.23,1.38-.34,1.95-.69Z"/>
  <path class="cls-1" d="M49.58,34.34h-3.1v1.26h2.98c1.26,0,2.07-.8,2.07-1.95s-.69-1.72-1.84-1.72h-1.38c-.34,0-.57-.23-.57-.57s.23-.57.57-.57h2.64l.57-1.26h-3.1c-1.26,0-2.07.8-2.07,1.84,0,1.15.69,1.72,1.84,1.72h1.38c.34,0,.57.23.57.57.11.46-.11.69-.57.69ZM43.95,34.34h-3.1v1.26h2.98c1.26,0,2.07-.8,2.07-1.95s-.69-1.72-1.84-1.72h-1.38c-.34,0-.57-.23-.57-.57s.23-.57.57-.57h2.64l.57-1.26h-3.1c-1.26,0-2.07.8-2.07,1.84,0,1.15.69,1.72,1.84,1.72h1.38c.34,0,.57.23.57.57.11.46-.23.69-.57.69ZM39.94,30.66v-1.26h-4.82v6.08h4.82v-1.26h-3.44v-1.26h3.33v-1.26h-3.33v-1.15h3.44s0,.11,0,.11ZM32.13,30.66c.57,0,.8.34.8.69s-.23.69-.8.69h-1.72v-1.49s1.72.11,1.72.11ZM30.41,33.3h.69l1.84,2.18h1.72l-2.07-2.3c1.03-.23,1.61-.92,1.61-1.84,0-1.15-.8-1.95-2.07-1.95h-3.21v6.08h1.38s.11-2.18.11-2.18ZM26.74,31.47c0,.46-.23.8-.8.8h-1.84v-1.61h1.72c.57,0,.92.34.92.8ZM22.72,29.4v6.08h1.38v-2.07h1.84c1.26,0,2.18-.8,2.18-2.07,0-1.15-.8-2.07-2.07-2.07,0,0-3.33.11-3.33.11ZM20.66,35.48h1.72l-2.41-3.1,2.41-2.98h-1.72l-1.49,1.95-1.49-1.95h-1.72l2.41,2.98-2.41,2.98h1.72l1.49-1.95s1.49,2.07,1.49,2.07ZM15.49,30.66v-1.26h-4.82v6.08h4.82v-1.26h-3.44v-1.26h3.33v-1.26h-3.33v-1.15h3.44v.11ZM43.38,19.88l2.41,3.67h1.72v-6.08h-1.38v4.02l-.34-.57-2.18-3.44h-1.84v6.08h1.38v-4.13s.23.46.23.46ZM37.41,19.76l.46-1.26.46,1.26.57,1.38h-2.07s.57-1.38.57-1.38ZM39.82,23.55h1.49l-2.64-6.08h-1.84l-2.64,6.08h1.49l.57-1.26h2.98s.57,1.26.57,1.26ZM33.4,23.55l.57-1.26h-.34c-1.03,0-1.61-.69-1.61-1.72v-.11c0-1.03.57-1.72,1.61-1.72h1.49v-1.26h-1.61c-1.84,0-2.87,1.26-2.87,2.98v.11c0,1.84,1.03,2.98,2.75,2.98ZM28.23,23.55h1.38v-5.97h-1.38v5.97ZM25.25,18.73c.57,0,.8.34.8.69s-.23.69-.8.69h-1.72v-1.49s1.72.11,1.72.11ZM23.53,21.37h.69l1.84,2.18h1.72l-2.07-2.3c1.03-.23,1.61-.92,1.61-1.84,0-1.15-.8-1.95-2.07-1.95h-3.21v6.08h1.38s.11-2.18.11-2.18ZM21,18.73v-1.26h-4.82v6.08h4.82v-1.26h-3.44v-1.26h3.33v-1.26h-3.33v-1.15h3.44v.11ZM10.56,23.55h1.26l1.72-4.93v4.93h1.38v-6.08h-2.3l-1.38,4.13-1.38-4.13h-2.3v6.08h1.38v-4.93s1.61,4.93,1.61,4.93ZM3.1,19.76l.46-1.26.46,1.26.57,1.38h-2.07s.57-1.38.57-1.38ZM5.51,23.55h1.49l-2.64-6.08h-1.72l-2.64,6.08h1.49l.57-1.26h2.98s.46,1.26.46,1.26Z"/>
</svg>