<?xml version="1.0" encoding="UTF-8"?>
<svg id="Layer_1" data-name="Layer 1" xmlns="http://www.w3.org/2000/svg" viewBox="0 0 74.79 40.57">
  <defs>
    <style>
      .cls-1 {
        fill: #e21d39;
      }

      .cls-1, .cls-2 {
        stroke-width: 0px;
      }

      .cls-2 {
        fill: #222d65;
      }
    </style>
  </defs>
  <path class="cls-1" d="M37.28,40.57c11.81-10.13,28.4-19.98,37.51-23.52-1.41-.9-3.6-2.19-6.07-3.6-11.75,3.88-25.47,12.49-37.73,22.23,2.08,1.58,4.27,3.21,6.3,4.9h0Z"/>
  <path class="cls-2" d="M31.88,13.05c-1.74-.84-3.65-1.63-5.12-2.31-4.44,2.19-10.23,5.51-17.54,10.75,1.57.84,3.26,1.86,5.06,2.87,5.62-4.16,11.3-8.1,17.6-11.31Z"/>
  <path class="cls-1" d="M42.4,8.22c-2.14-1.18-9.56-3.94-14.68-5.12-1.52.56-3.65,1.41-5.12,2.03,1.86.51,8.77,2.36,14.68,5.35,1.52-.73,3.65-1.63,5.12-2.25Z"/>
  <path class="cls-2" d="M17.26,7.48C10.68,10.52,3.77,14.69,0,17.11c1.35.62,2.7,1.13,4.55,2.03,8.32-5.63,14.84-9.06,17.43-10.19-1.86-.68-3.6-1.13-4.72-1.46h0Z"/>
  <path class="cls-1" d="M47.35,6.47c1.52-.51,3.26-.96,4.78-1.41-4.39-1.86-9.9-3.83-14.84-5.06-.79.23-3.15.84-4.78,1.35,1.69.51,7.25,1.8,14.84,5.12ZM19.62,27.63c1.8,1.07,3.71,2.53,5.57,3.77,12.31-9.57,24.46-16.94,37.79-21.1-1.86-.96-3.49-1.8-5.57-2.81-7.98,2.03-21.65,7.48-37.79,20.15Z"/>
</svg>