<?xml version="1.0" encoding="UTF-8"?>
<svg id="Layer_1" data-name="Layer 1" xmlns="http://www.w3.org/2000/svg" viewBox="0 0 63.68 22.87">
  <defs>
    <style>
      .cls-1 {
        fill: #cc2328;
      }

      .cls-1, .cls-2 {
        stroke-width: 0px;
      }

      .cls-2 {
        fill: #013e5b;
      }
    </style>
  </defs>
  <path class="cls-1" d="M43.22,16.53h-.02c-2.71,1.92-5.91,3.93-9.37,6.05l-.14.08c-.05.02-.08.08-.06.14.02.05.08.08.14.06.02,0,.03-.02.04-.03l.11-.06c2.94-1.52,6.31-3.34,9.69-5.21l.06-.03c-.2-.31-.35-.64-.46-.99ZM61.02,2.12c-4.27-4.71-31.78-.47-43.47,2.09l-.27.06c-.06.01-.09.06-.09.12,0,.05.05.09.1.08,0,0,.01,0,.02,0l.27-.05c9.69-1.72,29.85-4.11,34.18.18,1.33,1.31,1.02,3-.52,5,.85.55,1.45,1.42,1.68,2.41,5.99-3.98,10.01-7.79,8.11-9.89Z"/>
  <g>
    <path class="cls-2" d="M20.26,12.85c-.33,0-.66.11-.93.3-.28.23-.46.56-.5.91-.09.47-.05.79.14,1.01.22.21.51.32.81.3.23,0,.46-.04.67-.14.2-.09.38-.24.5-.43.14-.21.24-.45.29-.7.08-.43.02-.73-.18-.94-.2-.22-.49-.33-.79-.32ZM15.52,18.76l1.26-7.13h2.29l-.18.91c.25-.31.58-.55.96-.69.47-.19.97-.3,1.48-.3.59,0,.96.03,1.4.26.42.21.74.57.91,1.01.18.46.22.96.12,1.45-.13.84-.59,1.59-1.28,2.09-.7.5-1.33.64-2.22.64-.27,0-.54-.03-.81-.09-.18-.04-.36-.11-.52-.2-.16-.11-.3-.25-.43-.4l-.43,2.45h-2.56ZM41.9,16.92h-2.65l1.34-7.4,2.57.06-1.26,7.34ZM28.67,11.57l.18-1.08,2.71-.58-.29,1.66h1.34l-.26,1.08h-1.3l-.78,4.27h-2.64l.79-4.27h-.99l.2-1.07h1.02v-.02ZM7.55,15.01c-.71.16-1.44.24-2.16.23-1.23,0-2.22-.61-2.16-1.75.03-.75.93-2.33,3.18-2.33.71-.02,1.42.17,2.03.55l.32-1.84c-.81-.32-1.69-.47-2.56-.43-2.97.03-5.82,1.37-6.17,4.11s3.05,3.49,4.56,3.49c.87,0,1.78-.05,2.62-.12l.35-1.9ZM36.46,14.48l-.44.12-1.02.18c-.24.02-.48.09-.69.21-.12.07-.21.19-.23.34-.04.14.02.29.14.37.14.09.35.12.66.12.23,0,.45-.03.67-.09.2-.06.39-.16.55-.29.11-.09.19-.21.23-.35.06-.2.11-.4.14-.61ZM39.26,12.73c-.02.26-.06.5-.12.88l-.47,2.67c-.05.22.06.45.26.55v.09h-2.73v-.69c-.41.24-.85.43-1.31.56-.43.11-.87.16-1.31.15-.87,0-1.37-.09-1.72-.4s-.52-.52-.5-.94c.03-.29.15-.57.34-.79.2-.22.44-.39.72-.5.34-.15.71-.26,1.08-.3.49-.08,1.16-.15,2.06-.23.3-.03.6-.1.88-.2.18-.08.26-.15.29-.3s-.03-.43-.4-.5c-.98-.2-2.8.12-3.75.35l.5-1.37c1.2-.19,2.42-.29,3.64-.3,1.94.02,2.56.58,2.54,1.28h0ZM23.69,16.92l.94-5.32h2.61l-.94,5.32h-2.61ZM24.78,10.38c.08-.44.76-.79,1.54-.79s1.33.35,1.25.79-.76.79-1.54.79-1.33-.37-1.25-.79ZM13.02,14.46c-.14.06-.29.1-.44.12l-1.01.18c-.25.02-.49.09-.7.21-.12.08-.21.21-.23.35-.03.14.03.28.15.35.19.11.42.16.64.14.23,0,.45-.04.67-.11.2-.06.39-.16.55-.29.11-.09.19-.21.23-.35.07-.2.12-.4.14-.61ZM15.83,12.73c-.02.26-.06.49-.12.88l-.47,2.65c-.05.22.06.45.26.55v.11h-2.73v-.67c-.41.23-.85.42-1.31.55-.42.11-.86.17-1.3.17-.88,0-1.39-.09-1.72-.4s-.53-.52-.52-.96c.03-.29.15-.56.34-.78.2-.22.44-.4.72-.52.35-.15.72-.25,1.1-.3.47-.08,1.14-.15,2.04-.23.3,0,.6-.08.88-.2.2-.08.26-.15.29-.3s-.03-.43-.4-.5c-.98-.18-2.8.12-3.75.37l.5-1.39c1.2-.19,2.42-.29,3.64-.3,1.94,0,2.56.56,2.54,1.28Z"/>
    <path class="cls-2" d="M52.5,13.44l.59-.06c.2,0,.37.05.38.23s-.2.91-.24,1.11l-.41,1.78c-.15.73-.34,1.49-.49,2.1h1.04l.58-2.83c1.8-1.86,2.48-2.47,2.89-2.47.17-.02.32.1.34.27,0,.02,0,.04,0,.06.02.32-.2,1.07-.26,1.28l-.61,2.06c-.12.47-.23.88-.21,1.19s.29.66.69.66c.76,0,1.33-.79,1.8-1.57l-.14-.26c-.2.3-.64.99-1.01.99-.11,0-.21-.08-.21-.26.01-.28.06-.57.15-.84l.67-2.42c.17-.67.26-1.1.26-1.33s-.29-.66-.69-.66c-.69,0-1.6.5-3.52,2.71h-.03l.24-1.08c.14-.59.26-1.2.38-1.63-.72.26-1.46.47-2.21.62l.02.34ZM62.69,13.5c-.02-.43-.23-.72-.67-.72-1.07,0-2.19,2.09-2.39,2.93,1.74,0,3.11-1.04,3.06-2.21ZM62.92,16.78l.2.14c-.52,1.05-1.57,1.9-2.82,1.9-1.02,0-1.84-.67-1.89-1.94-.09-2.29,2.06-4.4,3.79-4.4.75,0,1.45.34,1.48,1.14.06,1.81-2.48,2.36-4.16,2.39-.05.22-.08.45-.06.67.03.76.49,1.39,1.42,1.39s1.63-.66,2.04-1.3ZM44.96,15.3c.05,1.66,1.1,3.02,2.47,3.02,2.65,0,3.78-3.26,3.7-5.44-.06-1.66-1.13-3.02-2.5-3.02-2.29,0-3.76,3.25-3.67,5.44ZM43.56,15.21c-.11-2.83,2.12-5.73,5.33-5.73,2.16,0,3.57,1.45,3.64,3.64.11,2.99-1.97,5.73-5.33,5.73-2.16,0-3.57-1.43-3.64-3.64Z"/>
  </g>
</svg>