<?xml version="1.0" encoding="UTF-8"?>
<svg id="Layer_1" data-name="Layer 1" xmlns="http://www.w3.org/2000/svg" viewBox="0 0 47.38 53.38">
  <defs>
    <style>
      .cls-1 {
        fill: #5ba645;
        stroke-width: 0px;
      }
    </style>
  </defs>
  <path class="cls-1" d="M47.38,13.95v25.48c-.07.6-.41,1.14-.92,1.45l-5.11,2.95V9.55l5.11,2.95c.52.31.86.85.92,1.45ZM24.79,53.37l6.03-3.48v-16.54l-6.03,3.48v16.54ZM33.07,22.49l-16.51,9.55v17.86l5.99,3.48v-17.73l10.52-6.07v19.01l6.03-3.43V8.23l-6.03-3.43v17.69ZM22.54,0l-5.99,3.48v16.54l5.99-3.48V0ZM30.82,3.48L24.79,0v17.73l-10.52,6.07V4.8l-5.99,3.48v36.87l5.99,3.43v-17.69l16.56-9.55V3.48ZM0,13.95v25.48c.06.6.4,1.14.92,1.45l5.11,2.95V9.55L.92,12.5c-.51.32-.86.85-.92,1.45Z"/>
</svg>