<?xml version="1.0" encoding="UTF-8"?>
<svg id="Layer_1" data-name="Layer 1" xmlns="http://www.w3.org/2000/svg" viewBox="0 0 62.93 52.08">
  <defs>
    <style>
      .cls-1 {
        fill: #cf2a36;
      }

      .cls-1, .cls-2 {
        stroke-width: 0px;
      }

      .cls-2 {
        fill: #fff;
      }
    </style>
  </defs>
  <polygon class="cls-1" points="0 39.42 31.46 52.08 62.93 39.42 62.93 0 0 0 0 39.42"/>
  <path class="cls-2" d="M23.94,34.12c-1.37,2.28-4.4,3.23-7.05,3.23-6.42,0-10.02-4.67-10.02-10.28V10.42h8.06v14.95c0,2.55,1.37,4.56,4.24,4.56,2.71,0,4.4-1.85,4.4-4.5v-15.01h8.06v21.63c0,1.58.09,3.15.26,4.72h-7.73c-.13-.88-.21-1.76-.22-2.65Z"/>
  <path class="cls-2" d="M41.64,28.08c.11,1.8,1.38,3.55,4.14,3.55,2.07,0,3.07-1.11,3.07-2.28,0-.95-.64-1.75-2.6-2.17l-3.02-.72c-5.61-1.19-7.84-4.37-7.84-8.08,0-4.82,4.24-8.75,10.13-8.75,7.63,0,10.29,4.77,10.55,7.85l-6.69,1.22c-.13-1.91-1.78-3.35-3.68-3.22-.02,0-.05,0-.07,0-1.54,0-2.89.9-2.89,2.28,0,1.11.9,1.75,2.07,1.96l3.5.72c5.45,1.11,8.1,4.4,8.1,8.26,0,4.51-3.44,8.9-10.49,8.9-8.27,0-10.92-5.35-11.13-8.27l6.86-1.27Z"/>
</svg>