<?xml version="1.0" encoding="UTF-8"?>
<svg id="Layer_1" data-name="Layer 1" xmlns="http://www.w3.org/2000/svg" version="1.1" viewBox="0 0 173.4 216.7">
  <defs>
    <style>
      .cls-1 {
        fill: #000;
        fill-rule: evenodd;
        stroke-width: 0px;
      }
    </style>
  </defs>
  <path class="cls-1" d="M54.9,35l11.4,19.7c.5.8.2,1.8-.6,2.3-11,6.7-24.7,17.7-27.2,32.2-1.4,8,.9,16.3,6.8,24.7,1.2-6,5-12.8,11.1-19.2,6.9-7.4,15.6-13.3,22.7-15.3.7-.2,1.5,0,1.9.8l11.4,19.7,15.6-52.2-53-12.6h-.1ZM46.6,120.1c-.5,0-1-.2-1.3-.6-8.5-10.4-11.9-20.8-10.2-30.9,2.6-15.1,16-26.6,27.4-33.7l-12.5-21.7c-.3-.6-.3-1.3,0-1.9.4-.5,1.1-.8,1.7-.6l58.6,13.9c.5.1.8.4,1.1.8.2.4.3.9.2,1.3l-17.2,57.7c-.2.6-.8,1.1-1.4,1.2-.7,0-1.3-.3-1.7-.8l-12.6-21.9c-13.6,4.7-31.1,22.7-30.4,35.3,0,.7-.4,1.4-1.1,1.7-.2,0-.4,0-.6,0h0Z"/>
  <path class="cls-1" d="M65.7,169l53,12.6-11.4-19.7c-.5-.8-.2-1.8.6-2.3,11-6.7,24.7-17.7,27.2-32.2,1.4-8-.9-16.3-6.8-24.7-1.2,6-5,12.8-11.1,19.2-6.9,7.4-15.6,13.3-22.7,15.3-.7.2-1.5,0-1.9-.8l-11.4-19.7-15.6,52.2h.1ZM122.2,185.9h-.4l-58.6-13.9c-.5-.1-.8-.4-1.1-.8-.2-.4-.3-.9-.2-1.3l17.2-57.7c.2-.6.8-1.1,1.4-1.2.7,0,1.3.3,1.7.8l12.6,21.9c13.6-4.7,31.1-22.7,30.4-35.3,0-.7.4-1.4,1.1-1.7.7-.3,1.5,0,1.9.5,8.5,10.4,11.9,20.8,10.2,30.9-2.6,15.1-16,26.6-27.4,33.7l12.5,21.6c.3.6.3,1.3,0,1.9-.3.4-.8.7-1.4.7h.2Z"/>
</svg>