<?xml version="1.0" encoding="UTF-8"?>
<svg id="Layer_1" data-name="Layer 1" xmlns="http://www.w3.org/2000/svg" version="1.1" viewBox="0 0 110 135">
  <defs>
    <style>
      .cls-1 {
        fill: #000;
        fill-rule: evenodd;
        stroke-width: 0px;
      }
    </style>
  </defs>
  <path class="cls-1" d="M13,90.5c-.1.2-.2.5-.2.7v4.7c-1.8.2-3.1,1.6-3.1,3.4v2.5c0,1.9,1.5,3.4,3.4,3.4h83.8c1.9,0,3.4-1.5,3.4-3.4v-2.5c0-1.8-1.4-3.3-3.1-3.4v-4.7c0-.3,0-.5-.2-.7l-2.9-5.9v-30.5l2.9-5.9c.1-.2.2-.5.2-.7v-4.7c1.8-.2,3.1-1.6,3.1-3.4v-3.1c0-1.4-.8-2.6-2.1-3.2-6.1-2.6-35-15-41.4-17.7-1.2-.5-2.5-.5-3.7,0-6.3,2.7-35.3,15.1-41.4,17.7-1.3.5-2.1,1.8-2.1,3.2v3.1c0,1.8,1.4,3.3,3.1,3.4v4.7c0,.3,0,.5.2.7l2.9,5.9v30.5l-2.9,5.9ZM13.1,99.1h83.8c.2,0,.3.1.3.3v2.5c0,.2-.1.3-.3.3H13.1c-.2,0-.3-.1-.3-.3v-2.5c0-.2.1-.3.3-.3ZM94.1,92.8H15.9v3.1h78.1v-3.1ZM35.3,89.7l2.5-5.1v-30.5l-2.5-5.1h-4.3l-2.5,5.1v30.5l2.5,5.1h4.3ZM57.2,89.7l2.5-5.1v-30.5l-2.5-5.1h-4.3l-2.5,5.1v30.5l2.5,5.1h4.3ZM79,89.7l2.5-5.1v-30.5l-2.5-5.1h-4.3l-2.5,5.1v30.5l2.5,5.1h4.3ZM25.9,86.6l1.6,3.1h-10.6l1.6-3.1h7.4ZM47.8,86.6l1.6,3.1h-10.6l1.6-3.1h7.4ZM91.5,86.6l1.6,3.1h-10.6l1.6-3.1h7.4ZM69.7,86.6l1.6,3.1h-10.6l1.6-3.1h7.4ZM25.3,55.3v28.1h-6.2v-28.1h6.2ZM47.2,55.3v28.1h-6.2v-28.1h6.2ZM69.1,55.3v28.1h-6.2v-28.1h6.2ZM90.9,55.3v28.1h-6.2v-28.1h6.2ZM27.5,49.1l-1.6,3.1h-7.4l-1.6-3.1h10.6ZM49.3,49.1l-1.6,3.1h-7.4l-1.6-3.1h10.6ZM71.2,49.1l-1.6,3.1h-7.4l-1.6-3.1h10.6ZM93.1,49.1l-1.6,3.1h-7.4l-1.6-3.1h10.6ZM94.1,45.9v-3.1H15.9v3.1h78.1ZM96.9,39.7H13.1c-.2,0-.3-.1-.3-.3v-3.1c0-.1,0-.2.2-.3l41.4-17.7c.4-.2.8-.2,1.2,0,6.3,2.7,35.3,15.1,41.4,17.7.1,0,.2.2.2.3v3.1c0,.2-.1.3-.3.3h0Z"/>
</svg>