<svg width="128" height="128" xmlns="http://www.w3.org/2000/svg" xmlns:xlink="http://www.w3.org/1999/xlink" xml:space="preserve" overflow="hidden"><g transform="translate(-168 -516)"><g><g><g><g><path d="M267.557 567.815C268.495 566.183 269.25 564.453 269.806 562.655L275.627 559.745 275.627 553.13 269.806 550.22C269.32 548.418 268.609 546.685 267.69 545.06L269.806 538.843 265.044 534.08 258.826 536.197C257.203 535.273 255.469 534.557 253.667 534.066L250.756 528.245 244.142 528.245 241.231 534.066C239.429 534.552 237.696 535.263 236.072 536.182L229.854 534.066 225.092 538.828 227.208 545.046C226.289 546.67 225.578 548.404 225.092 550.205L219.271 553.116 219.271 559.73 225.092 562.641C225.578 564.442 226.29 566.176 227.208 567.8L225.092 574.018 229.722 578.648 235.94 576.531C237.564 577.45 239.297 578.161 241.099 578.648L244.009 584.469 250.624 584.469 253.534 578.648C255.336 578.161 257.069 577.45 258.694 576.531L264.911 578.648 269.674 574.018ZM265.052 568.667 266.631 573.303 264.23 575.638 259.547 574.043 258.404 573.654 257.36 574.262C255.928 575.072 254.398 575.697 252.808 576.121L251.689 576.441 251.168 577.482 248.989 581.848 245.648 581.848 243.47 577.482 242.948 576.441 241.829 576.121C240.239 575.697 238.709 575.072 237.276 574.262L236.233 573.654 235.09 574.043 230.431 575.63 228.129 573.328 229.717 568.668 230.106 567.525 229.497 566.482C228.689 565.049 228.067 563.518 227.645 561.928L227.325 560.808 226.285 560.288 221.917 558.107 221.917 554.761 226.282 552.586 227.322 552.065 227.642 550.946C228.064 549.356 228.687 547.826 229.494 546.393L230.103 545.349 229.714 544.207 228.126 539.545 230.561 537.111 235.22 538.698 236.363 539.095 237.405 538.485C238.839 537.678 240.369 537.056 241.959 536.633L243.083 536.295 243.605 535.254 245.783 530.888 249.128 530.888 251.307 535.254 251.828 536.295 252.946 536.615C254.536 537.037 256.066 537.659 257.499 538.467L258.543 539.077 259.686 538.68 264.344 537.092 266.778 539.527 265.191 544.189 264.802 545.33 265.41 546.374C266.22 547.807 266.844 549.337 267.269 550.927L267.588 552.047 268.629 552.568 272.994 554.748 272.994 558.094 268.629 560.274 267.617 560.781 267.283 561.863C266.786 563.47 266.113 565.017 265.277 566.477L264.668 567.52Z" fill="#000000" fill-rule="nonzero" fill-opacity="1"/><path d="M189.373 601.161 189.373 607.776 195.194 610.686C195.68 612.488 196.391 614.221 197.31 615.846L195.326 622.063 199.956 626.694 206.174 624.709C207.798 625.629 209.532 626.34 211.333 626.826L214.244 632.647 220.858 632.647 223.769 626.826C225.57 626.339 227.304 625.628 228.928 624.709L235.146 626.826 239.776 622.063 237.792 615.978C238.711 614.354 239.422 612.62 239.908 610.819L245.729 607.908 245.729 601.294 239.908 598.383C239.422 596.581 238.711 594.848 237.792 593.224L239.908 587.006 235.146 582.244 228.928 584.36C227.293 583.464 225.562 582.754 223.769 582.244L220.858 576.423 214.244 576.423 211.333 582.244C209.532 582.73 207.798 583.441 206.174 584.36L199.956 582.244 195.326 586.874 197.31 593.091C196.414 594.727 195.704 596.457 195.194 598.251ZM197.39 600.103 197.723 599.021C198.178 597.422 198.807 595.878 199.596 594.416L200.189 593.398 199.831 592.278 198.337 587.594 200.663 585.266 205.322 586.854 206.465 587.244 207.507 586.636C208.94 585.826 210.47 585.201 212.061 584.777L213.185 584.469 213.707 583.428 215.885 579.062 219.23 579.062 221.409 583.428 221.915 584.441 222.997 584.773C224.595 585.229 226.139 585.858 227.601 586.648L228.645 587.256 229.788 586.866 234.446 585.278 236.88 587.714 235.293 592.375 234.904 593.516 235.512 594.56C236.322 595.994 236.946 597.524 237.371 599.115L237.69 600.233 238.731 600.754 243.083 602.929 243.083 606.274 238.718 608.455 237.677 608.976 237.358 610.094C236.933 611.684 236.309 613.215 235.499 614.648L234.901 615.674 235.269 616.802 236.758 621.37 234.418 623.788 229.788 622.21 228.645 621.821 227.601 622.43C226.167 623.241 224.636 623.865 223.044 624.289L221.925 624.609 221.405 625.65 219.226 630.015 215.882 630.015 213.703 625.65 213.181 624.609 212.062 624.289C210.472 623.865 208.942 623.24 207.509 622.43L206.493 621.837 205.371 622.194 200.689 623.689 198.338 621.338 199.832 616.654 200.19 615.534 199.598 614.516C198.788 613.083 198.163 611.553 197.739 609.963L197.419 608.844 196.379 608.322 192.013 606.142 192.013 602.796 196.379 600.616Z" fill="#000000" fill-rule="nonzero" fill-opacity="1"/><path d="M247.449 546.509C241.969 546.509 237.527 550.951 237.527 556.431 237.527 561.911 241.969 566.353 247.449 566.353 252.929 566.353 257.371 561.911 257.371 556.431 257.33 550.968 252.912 546.55 247.449 546.509ZM247.449 563.707C243.433 563.701 240.179 560.447 240.173 556.431 240.226 552.435 243.453 549.208 247.449 549.155 251.465 549.161 254.719 552.415 254.725 556.431 254.675 560.429 251.447 563.659 247.449 563.712Z" fill="#000000" fill-rule="nonzero" fill-opacity="1"/><path d="M217.551 614.527C223.031 614.527 227.473 610.085 227.473 604.605 227.473 599.125 223.031 594.683 217.551 594.683 212.071 594.683 207.629 599.125 207.629 604.605 207.623 610.078 212.054 614.52 217.527 614.527 217.535 614.527 217.543 614.527 217.551 614.527ZM217.551 597.322C221.57 597.322 224.827 600.58 224.827 604.598 224.827 608.617 221.57 611.874 217.551 611.874 213.533 611.874 210.275 608.617 210.275 604.598 210.281 600.582 213.535 597.328 217.551 597.322Z" fill="#000000" fill-rule="nonzero" fill-opacity="1"/></g></g></g></g></g></svg>