<svg width="96" height="96" xmlns="http://www.w3.org/2000/svg" xmlns:xlink="http://www.w3.org/1999/xlink" xml:space="preserve" overflow="hidden"><g transform="translate(-196 -352)"><g><path d="M250.507 403.612C254.373 403.612 257.507 406.746 257.507 410.612 257.507 414.478 254.373 417.612 250.507 417.612 246.641 417.612 243.507 414.478 243.507 410.612 243.512 406.748 246.643 403.617 250.507 403.612M250.507 401.612C245.536 401.612 241.507 405.641 241.507 410.612 241.507 415.583 245.536 419.612 250.507 419.612 255.478 419.612 259.507 415.583 259.507 410.612 259.507 405.641 255.478 401.612 250.507 401.612Z" fill="#000000" fill-rule="nonzero" fill-opacity="1"/><path d="M268.528 440.022 266.528 440.022 266.528 431.51C266.562 430.487 266.081 429.514 265.247 428.92 262.901 427.083 260.182 425.782 257.28 425.107 255.072 424.441 252.785 424.068 250.48 423.997 248.219 424.007 245.973 424.373 243.825 425.082 240.934 425.869 238.208 427.168 235.775 428.917 234.968 429.539 234.493 430.498 234.489 431.517L234.489 440.025 232.489 440.025 232.489 431.51C232.501 429.86 233.276 428.309 234.589 427.31 237.205 425.423 240.139 424.021 243.25 423.17 245.59 422.401 248.037 422.006 250.5 422 252.971 422.071 255.422 422.466 257.789 423.177 260.939 423.914 263.891 425.327 266.439 427.32 267.791 428.293 268.572 429.873 268.524 431.538Z" fill="#000000" fill-rule="nonzero" fill-opacity="1"/><path d="M226.025 389.587C229.891 389.587 233.025 392.721 233.025 396.587 233.025 400.453 229.891 403.587 226.025 403.587 222.159 403.587 219.025 400.453 219.025 396.587 219.031 392.723 222.161 389.592 226.025 389.587M226.025 387.587C221.054 387.587 217.025 391.616 217.025 396.587 217.025 401.558 221.054 405.587 226.025 405.587 230.996 405.587 235.025 401.558 235.025 396.587 235.025 391.616 230.996 387.587 226.025 387.587Z" fill="#000000" fill-rule="nonzero" fill-opacity="1"/><path d="M239.56 411.667C237.618 410.513 235.51 409.665 233.311 409.151 230.944 408.439 228.493 408.043 226.022 407.973 223.556 407.979 221.107 408.374 218.764 409.144 215.652 409.994 212.717 411.396 210.1 413.283 208.787 414.282 208.012 415.833 208 417.483L208 426 210 426 210 417.49C210.004 416.471 210.479 415.512 211.286 414.89 213.719 413.141 216.445 411.842 219.336 411.056 221.486 410.346 223.736 409.981 226 409.972 228.306 410.043 230.592 410.416 232.8 411.083 235.481 411.71 238.008 412.872 240.229 414.5 239.88 413.59 239.656 412.637 239.56 411.667Z" fill="#000000" fill-rule="nonzero" fill-opacity="1"/><path d="M277.343 362C277.403 362.002 277.45 362.051 277.449 362.111L277.449 387.9C277.45 387.954 277.412 388.001 277.359 388.01L253.039 388.01 252.451 388.61 247.587 393.56 247.587 388.008 239.6 388.008C239.553 388.008 239.5 387.953 239.5 387.868L239.5 362.1C239.499 362.052 239.533 362.01 239.58 362L277.343 362M277.359 360 239.587 360C238.431 360.011 237.501 360.955 237.507 362.111L237.507 387.868C237.485 389.027 238.406 389.986 239.566 390.008L245.587 390.008 245.587 398.451 253.878 390.008 277.359 390.008C278.517 389.997 279.449 389.056 279.449 387.898L279.449 362.111C279.449 360.953 278.517 360.012 277.359 360Z" fill="#000000" fill-rule="nonzero" fill-opacity="1"/><path d="M258.377 364.883 258.277 364.883C258.044 364.87 257.81 364.87 257.577 364.883 254.408 365.073 251.957 367.737 252.032 370.911L252.032 371.033 254.042 371.033 254.042 370.906C254.039 370.755 254.044 370.604 254.058 370.453 254.235 368.433 255.93 366.886 257.958 366.894 258.067 366.893 258.176 366.898 258.284 366.909L258.443 366.909C260.744 366.949 262.579 368.845 262.543 371.146 262.543 373.458 260.836 375.012 258.297 375.012L257.297 375.012 257.297 379.93 259.313 379.93 259.313 376.964 259.621 376.926C262.519 376.569 264.664 374.056 264.561 371.138L264.561 371C264.513 367.616 261.762 364.894 258.377 364.883Z" fill="#000000" fill-rule="nonzero" fill-opacity="1"/><path d="M258.3 385C257.393 385 256.658 384.266 256.657 383.359 256.657 382.452 257.392 381.716 258.298 381.716 259.197 381.716 259.928 382.437 259.941 383.335 259.959 384.236 259.244 384.982 258.343 385 258.341 385 258.339 385 258.337 385Z" fill="#000000" fill-rule="nonzero" fill-opacity="1"/></g></g></svg>