<?xml version="1.0" encoding="UTF-8"?>
<svg id="Layer_1" data-name="Layer 1" xmlns="http://www.w3.org/2000/svg" viewBox="0 0 75.02 60.05">
  <defs>
    <style>
      .cls-1 {
        fill: #2e6fb7;
      }

      .cls-1, .cls-2 {
        stroke-width: 0px;
      }

      .cls-2 {
        fill: #fff;
      }
    </style>
  </defs>
  <path class="cls-1" d="M75.02,32.52V.05H.02v60h75v-17.51c-.17,0,0-10.02,0-10.02"/>
  <path class="cls-2" d="M60.34,1.79l-1.66-1.68c-2.24.1-4.51.03-6.79-.07-1.61.02-3.23.02-4.85,0-.34.07-.69.11-1.05.09-.34-.02-.67-.06-1.01-.1-.15.01-.31.02-.46.01h-.09c-.11,0-.21-.01-.31-.02-.17.02-.34.05-.52.07-.55.05-1.11.01-1.66-.08-.11.01-.22.03-.34.03-.06,0-.12,0-.18,0l-1.25,1.23,1.81,1.83-2.59-1.06-7.73,7.62c-.26.26-.39.65-.66.91-.26.26-.26.52-.4.91-.13.39-.26.52-.4.91l-.65-.66L7.42,33.55l1.02,2.35-2.33-1.06-5.24,5.17,1.81,1.83-2.59-1.06-.02.02c-.01.2-.03.4-.06.6.25.92.27,1.91.05,2.84.03.37.02.75-.01,1.12.19.79.19,1.62.03,2.42.16.78.16,1.6,0,2.38.03.33.03.67,0,1.01.02.3,0,.6-.02.9,0,.23,0,.47-.03.7l4.25,4.31,3.01-2.97-.9-1.96,1.05-1.03,1.95.92,23.06-22.74-1.29-1.31,2.21.41,6.42-6.33-.78-.79c.26,0,.52-.26.78-.25s.52-.26.78-.25c.39-.13.65-.39.92-.64l4.72-4.65-.9-1.96,1.05-1.03,1.95.92,6.42-6.33-1.29-1.31,2.47.41,4.45-4.39Z"/>
  <path class="cls-2" d="M75.01,12.77c-.12-.56-.16-1.15-.11-1.73l-8.45-8.57L30.42,38.01l.37,2.21-2.21-.41-10.48,10.34,9.66,9.8c.12,0,.23-.02.35-.02.25,0,.49.02.72.05l9.95-9.81-.37-2.21,2.21.41,6.55-6.46-2.2-2.23-.26.26c.92-.9,1.57-1.81,1.97-2.72l2.71,2.75,4.72-4.65-1.29-1.31,2.21.41,19.52-19.25c.14-.28.3-.55.45-.82-.03-.33-.02-.67.01-1-.01-.19-.01-.38-.01-.56Z"/>
  <polygon class="cls-1" points="10.15 34.22 13.23 40.49 7 37.32 4.38 39.9 11.23 46.85 12.8 45.3 7.25 39.66 14.64 43.49 16.08 42.07 12.49 34.5 18.04 40.13 19.61 38.58 12.77 31.64 10.15 34.22"/>
  <path class="cls-1" d="M29.31,29.02l-2.32-2.62.79-.78,4.55.42,1.97-1.94-4.94-.29c.92-1.42.8-2.86-.23-3.9-1.29-1.31-3.11-1.32-4.55.1l-3.67,3.62,6.85,6.94,1.57-1.55ZM23.89,23.26l2.09-1.81c.66-.65,1.3-.51,1.69-.12.39.39.51,1.04-.14,1.69l-1.97,1.94-1.68-1.7Z"/>
  <path class="cls-1" d="M.71,43.52l-.63.62s-.02.08-.03.12c.03.36.02.73-.02,1.09.19.79.19,1.62.03,2.41.1.45.13.92.12,1.39l2.4,6.21,1.7-1.68-.77-2.09,3.41-3.36,1.95.92,1.7-1.68-9.86-3.97ZM2.75,49.78l-.9-2.22-.9-1.96,1.95.92,2.21.93-2.36,2.33Z"/>
  <path class="cls-1" d="M54.86,3.83l1.97-1.94-1.72-1.74c-1.07-.02-2.14-.06-3.21-.11l1.03,1.05-1.04-.27-3.3-.76c-.51,0-1.03-.02-1.54-.02-.35.07-.7.11-1.05.09-.34-.02-.67-.06-1.01-.1-.05,0-.1,0-.15,0l-1.4,1.38,6.85,6.94,1.57-1.55-4.65-4.72.78.27,6.89,1.48Z"/>
  <path class="cls-1" d="M48.05,10.55l1.7-1.68-9.86-3.97-2.1,2.07,3.83,9.92,1.7-1.68-.77-2.09,3.41-3.36s2.08.8,2.08.8ZM41.93,11.15l-.9-2.22-.9-1.96,1.95.92,2.21.93-2.36,2.33Z"/>
  <rect class="cls-1" x="31.14" y="14.63" width="2.21" height="9.57" transform="translate(-4.35 28.23) rotate(-44.6)"/>
  <path class="cls-1" d="M34.21,17.48c2.07,2.1,4.54,2.24,6.5.31l-.77-2.09-.39.39c-1.18,1.16-2.61,1.02-3.77-.16l-.13-.13c-1.16-1.18-1.28-2.61-.1-3.77l1.7-1.68-1.42-1.44-1.83,1.81c-2.1,2.07-1.85,4.67.08,6.64l.13.13Z"/>
  <polygon class="cls-1" points="25.14 30.29 21.21 34.17 19.79 32.73 23.59 28.98 22.16 27.54 18.36 31.29 17.07 29.98 21 26.1 19.71 24.79 14.21 30.22 21.06 37.16 26.56 31.73 25.14 30.29"/>
  <polygon class="cls-1" points="56.26 26.48 54.84 25.04 58.64 21.29 57.22 19.85 53.42 23.6 52.13 22.29 56.06 18.41 54.76 17.1 49.26 22.53 56.11 29.47 61.61 24.04 60.19 22.6 56.26 26.48"/>
  <path class="cls-1" d="M62.32,15.33l-1.57,1.55c-.39.39-.91.38-1.3,0-.39-.39-.38-.91,0-1.3l3.01-2.97-.77-2.09-3.54,3.49c-1.44,1.42-1.45,3.24-.29,4.42,1.29,1.31,2.72,1.19,4.03-.1l1.57-1.55c.39-.39.91-.38,1.3,0,.65.39.51,1.04.12,1.43l-3.54,3.49,1.42,1.44,3.41-3.36c1.44-1.42,1.45-3.24.16-4.55-1.29-1.31-2.72-1.19-4.03.1Z"/>
  <path class="cls-1" d="M50.41,25.79c-1.29-1.31-3.11-1.32-4.55.1l-3.67,3.62,6.85,6.94,1.57-1.55s-2.32-2.62-2.32-2.62l.79-.78,4.55.42,1.97-1.94-4.94-.29c.92-1.42.8-2.86-.23-3.9ZM48.83,28.9l-1.97,1.94-1.68-1.7,2.09-1.81c.66-.65,1.3-.51,1.69-.12.39.39.51,1.04-.14,1.69Z"/>
  <path class="cls-1" d="M68.74,9l-1.57,1.55c-.39.39-.91.38-1.3,0s-.38-.91,0-1.3l3.01-2.97-.77-2.09-3.54,3.49c-1.44,1.42-1.45,3.24-.29,4.42,1.29,1.31,2.72,1.19,4.03-.1l1.57-1.55c.39-.39.91-.38,1.3,0,.65.39.64.92.12,1.43l-3.54,3.49,1.42,1.44,3.41-3.36c1.44-1.42,1.45-3.24.16-4.55-1.29-1.31-2.72-1.19-4.03.1Z"/>
  <path class="cls-1" d="M43.47,32.63c-1.29-1.31-3.24-1.45-4.68-.03,0,0-3.67,3.88-3.67,3.88l6.85,6.94,1.57-1.55-2.33-2.36,2.1-2.07c1.44-1.42,1.58-3.37.16-4.81ZM42.01,36.14l-2.1,2.07-1.81-1.83,1.97-1.94c.66-.65,1.44-.64,1.95-.12.52.52.64,1.18-.01,1.82Z"/>
  <polygon class="cls-1" points="28.35 53.99 26.93 52.55 30.73 48.81 29.31 47.37 25.51 51.11 24.22 49.8 28.15 45.93 26.86 44.62 21.36 50.04 28.2 56.99 33.71 51.56 32.28 50.12 28.35 53.99"/>
  <polygon class="cls-1" points="34.72 36.87 32.75 38.8 33.25 42.71 29.35 42.16 27.38 44.1 33.49 44.79 34.1 50.91 36.07 48.97 35.57 45.07 39.6 45.75 41.57 43.81 35.33 42.98 34.72 36.87"/>
</svg>