<svg width="54" height="58" xmlns="http://www.w3.org/2000/svg" xmlns:xlink="http://www.w3.org/1999/xlink" xml:space="preserve" overflow="hidden"><g transform="translate(-596 -356)"><g><g><g><g><path d="M7.72917 7.72917 15.4583 7.72917 15.4583 15.4583 7.72917 15.4583Z" fill="#000000" fill-rule="nonzero" fill-opacity="1" transform="matrix(1 0 0 1.07547 597 357)"/><path d="M32.1517 37.2723C31.7684 36.9005 31.1564 36.9099 30.7847 37.2931 30.421 37.6681 30.421 38.2642 30.7847 38.6392L31.8955 39.75 26.5 39.75 26.5 10.4896 17.6667 10.4896 17.6667 12.6979 24.2917 12.6979 24.2917 41.9583 31.8994 41.9583 30.7847 43.0686C30.413 43.4518 30.4223 44.0638 30.8056 44.4355 31.1806 44.7992 31.7767 44.7992 32.1517 44.4355L35.0501 41.5376C35.4276 41.16 35.4276 40.5478 35.0501 40.1701Z" fill="#000000" fill-rule="nonzero" fill-opacity="1" transform="matrix(1 0 0 1.07547 597 357)"/><path d="M45.2708 40.8542C45.2708 43.2934 43.2934 45.2708 40.8542 45.2708 38.4149 45.2708 36.4375 43.2934 36.4375 40.8542 36.4375 38.4149 38.4149 36.4375 40.8542 36.4375 43.2934 36.4375 45.2708 38.4149 45.2708 40.8542Z" fill="#000000" fill-rule="nonzero" fill-opacity="1" transform="matrix(1 0 0 1.07547 597 357)"/></g></g></g></g></g></svg>