<svg width="81" height="82" xmlns="http://www.w3.org/2000/svg" xmlns:xlink="http://www.w3.org/1999/xlink" xml:space="preserve" overflow="hidden"><g transform="translate(-412 -326)"><g><g><g><g><path d="M439 373.985C442.607 373.986 445.533 371.063 445.534 367.456 445.535 363.849 442.612 360.924 439.005 360.922 435.398 360.921 432.473 363.844 432.471 367.451 432.471 367.452 432.471 367.453 432.471 367.454 432.47 371.06 435.393 373.984 438.999 373.985 438.999 373.985 439 373.985 439 373.985ZM439 362.61C441.675 362.609 443.845 364.777 443.846 367.452 443.848 370.127 441.68 372.297 439.005 372.298 436.33 372.3 434.16 370.132 434.159 367.457 434.159 367.456 434.159 367.455 434.159 367.454 434.161 364.78 436.327 362.614 439 362.61Z" fill="#000000" fill-rule="nonzero" fill-opacity="1"/><path d="M450.926 379.165C449.007 377.685 446.809 376.609 444.463 376.002 442.693 375.46 440.852 375.182 439 375.178 437.154 375.208 435.32 375.485 433.548 376.002 431.227 376.676 429.04 377.744 427.082 379.161 426.102 379.932 425.521 381.103 425.5 382.35L425.5 388.594 452.5 388.594 452.5 382.35C452.48 381.106 451.902 379.936 450.926 379.165ZM450.812 386.906 427.188 386.906 427.188 382.35C427.204 381.628 427.54 380.95 428.105 380.5 429.895 379.218 431.888 378.246 434.001 377.625 435.626 377.151 437.307 376.896 439 376.866 440.691 376.871 442.373 377.127 443.989 377.625 446.12 378.17 448.118 379.141 449.863 380.479 450.445 380.928 450.793 381.615 450.812 382.35Z" fill="#000000" fill-rule="nonzero" fill-opacity="1"/><path d="M459.25 366.656 479.5 366.656 479.5 368.344 459.25 368.344Z" fill="#000000" fill-rule="nonzero" fill-opacity="1"/><path d="M459.25 373.406 479.5 373.406 479.5 375.094 459.25 375.094Z" fill="#000000" fill-rule="nonzero" fill-opacity="1"/><path d="M459.25 380.156 479.5 380.156 479.5 381.844 459.25 381.844Z" fill="#000000" fill-rule="nonzero" fill-opacity="1"/><path d="M459.25 386.906 479.5 386.906 479.5 388.594 459.25 388.594Z" fill="#000000" fill-rule="nonzero" fill-opacity="1"/><path d="M482.875 348.938 458.406 348.938 458.406 342.188C458.406 340.324 456.895 338.812 455.031 338.812L449.969 338.812C448.105 338.812 446.594 340.324 446.594 342.188L446.594 348.938 422.125 348.938C420.261 348.938 418.75 350.449 418.75 352.312L418.75 392.812C418.75 394.676 420.261 396.188 422.125 396.188L482.875 396.188C484.739 396.188 486.25 394.676 486.25 392.812L486.25 352.312C486.25 350.449 484.739 348.938 482.875 348.938ZM448.281 342.188C448.281 341.255 449.037 340.5 449.969 340.5L455.031 340.5C455.963 340.5 456.719 341.255 456.719 342.188L456.719 351.469C456.719 352.401 455.963 353.156 455.031 353.156L449.969 353.156C449.037 353.156 448.281 352.401 448.281 351.469ZM484.562 392.812C484.562 393.745 483.807 394.5 482.875 394.5L422.125 394.5C421.193 394.5 420.438 393.745 420.438 392.812L420.438 352.312C420.438 351.38 421.193 350.625 422.125 350.625L446.594 350.625 446.594 351.469C446.594 353.333 448.105 354.844 449.969 354.844L455.031 354.844C456.895 354.844 458.406 353.333 458.406 351.469L458.406 350.625 482.875 350.625C483.807 350.625 484.562 351.38 484.562 352.312Z" fill="#000000" fill-rule="nonzero" fill-opacity="1"/></g></g></g></g></g></svg>