<?xml version="1.0" encoding="UTF-8"?>
<svg id="Layer_1" data-name="Layer 1" xmlns="http://www.w3.org/2000/svg" xmlns:svg="http://www.w3.org/2000/svg" xmlns:sodipodi="http://sodipodi.sourceforge.net/DTD/sodipodi-0.dtd" xmlns:rdf="http://www.w3.org/1999/02/22-rdf-syntax-ns#" xmlns:inkscape="http://www.inkscape.org/namespaces/inkscape" xmlns:dc="http://purl.org/dc/elements/1.1/" xmlns:cc="http://creativecommons.org/ns#" version="1.1" viewBox="0 0 16.9 21.2">
  <defs>
    <style>
      .cls-1 {
        fill: #000;
        stroke-width: 0px;
      }
    </style>
  </defs>
  <path class="cls-1" d="M2.5,3c-.8,0-1.5.7-1.5,1.4v7.9c0,.8.7,1.4,1.5,1.4h11.9c.8,0,1.5-.7,1.5-1.4v-7.9c0-.8-.7-1.4-1.5-1.4H2.5ZM2.5,3.6h11.9c.5,0,.9.4.9.9v.9H1.6v-.9c0-.5.4-.9.9-.9ZM1.6,5.9h13.8v1H1.6v-1ZM1.6,7.5h13.8v4.9c0,.5-.4.9-.9.9H2.5c-.5,0-.9-.4-.9-.9v-4.9ZM10.7,9.1c-.4,0-.8.2-1.1.4-.3.3-.4.7-.4,1.1,0,.4.2.8.4,1.1.3.3.7.4,1.1.4.3,0,.6-.1.9-.3.3.2.6.3.9.3s.8-.2,1.1-.4c.3-.3.4-.7.4-1.1s-.2-.8-.4-1.1c-.3-.3-.7-.4-1.1-.4s-.6.1-.9.3c-.3-.2-.6-.3-.9-.3ZM3.3,9.5c-.1,0-.3.1-.3.3,0,.1.1.3.3.3,0,0,0,0,0,0h3.3c.1,0,.3-.1.3-.3,0-.1-.1-.3-.3-.3,0,0,0,0,0,0h-3.3ZM10.7,9.7c.2,0,.4,0,.5.1,0,0,0,.1-.1.2,0,0,0,0,0,0,0,.1,0,.3-.1.4,0,0,0,0,0,0,0,0,0,.1,0,.2s0,.1,0,.2c0,0,0,0,0,0,0,.1,0,.3.1.4,0,0,0,0,0,0,0,0,0,.1.1.2-.2,0-.3.1-.5.1-.3,0-.5-.1-.7-.3-.2-.2-.3-.4-.3-.7,0-.3.1-.5.3-.7.2-.2.4-.3.7-.3ZM12.4,9.7c.3,0,.5.1.7.3.2.2.3.4.3.7s-.1.5-.3.7c-.2.2-.4.3-.7.3s-.5-.1-.7-.3c0,0,0,0,0,0,0,0,0,0,0,0-.2-.2-.3-.4-.3-.7,0-.3.1-.5.3-.7,0,0,0,0,0,0,.2-.2.4-.3.7-.3ZM3.2,11c-.1,0-.3.1-.2.3,0,.1.1.2.3.2h1.4c.1,0,.3-.1.3-.3,0-.1-.1-.3-.3-.3,0,0,0,0,0,0h-1.4s0,0,0,0Z"/>
</svg>