<svg width="97" height="97" xmlns="http://www.w3.org/2000/svg" xmlns:xlink="http://www.w3.org/1999/xlink" xml:space="preserve" overflow="hidden"><g transform="translate(-405 -432)"><g><g><g><g><path d="M445 485.452 450.3 490.38 457.743 483.144 462.4 478.5 467.713 483.188 485.732 465.162C485.736 465.158 485.742 465.158 485.746 465.162 485.748 465.164 485.749 465.166 485.749 465.169L485.749 473.733 487.749 473.733 487.749 461.733 475.776 461.733 475.776 463.733 484.307 463.733C484.312 463.733 484.317 463.737 484.318 463.742 484.318 463.745 484.317 463.748 484.315 463.75L467.625 480.441 462.312 475.753 456.345 481.72 450.276 487.62 444.954 482.674 429.336 498.293 430.75 499.707Z" fill="#000000" fill-rule="nonzero" fill-opacity="1"/><path d="M422.042 513 422.042 447 420.042 447 420.042 515 488.012 515 488.012 513 422.042 513Z" fill="#000000" fill-rule="nonzero" fill-opacity="1"/></g></g></g></g></g></svg>