<svg width="96" height="97" xmlns="http://www.w3.org/2000/svg" xmlns:xlink="http://www.w3.org/1999/xlink" xml:space="preserve" overflow="hidden"><g transform="translate(-1068 -221)"><g><g><g><g><path d="M1122.51 273.612C1126.37 273.612 1129.51 276.746 1129.51 280.612 1129.51 284.478 1126.37 287.612 1122.51 287.612 1118.64 287.612 1115.51 284.478 1115.51 280.612 1115.51 276.748 1118.64 273.617 1122.51 273.612M1122.51 271.612C1117.54 271.612 1113.51 275.641 1113.51 280.612 1113.51 285.583 1117.54 289.612 1122.51 289.612 1127.48 289.612 1131.51 285.583 1131.51 280.612 1131.51 275.641 1127.48 271.612 1122.51 271.612Z" fill="#000000" fill-rule="nonzero" fill-opacity="1"/><path d="M1140.53 310.022 1138.53 310.022 1138.53 301.51C1138.56 300.487 1138.08 299.514 1137.25 298.92 1134.9 297.083 1132.18 295.782 1129.28 295.107 1127.07 294.441 1124.79 294.068 1122.48 293.997 1120.22 294.007 1117.97 294.373 1115.82 295.082 1112.93 295.869 1110.21 297.168 1107.78 298.917 1106.97 299.539 1106.49 300.498 1106.49 301.517L1106.49 310.025 1104.49 310.025 1104.49 301.51C1104.5 299.86 1105.28 298.309 1106.59 297.31 1109.21 295.423 1112.14 294.021 1115.25 293.17 1117.59 292.401 1120.04 292.006 1122.5 292 1124.97 292.071 1127.42 292.466 1129.79 293.177 1132.94 293.914 1135.89 295.327 1138.44 297.32 1139.79 298.293 1140.57 299.873 1140.52 301.538Z" fill="#000000" fill-rule="nonzero" fill-opacity="1"/><path d="M1098.03 259.587C1101.89 259.587 1105.03 262.721 1105.03 266.587 1105.03 270.453 1101.89 273.587 1098.03 273.587 1094.16 273.587 1091.03 270.453 1091.03 266.587 1091.03 262.723 1094.16 259.592 1098.03 259.587M1098.03 257.587C1093.05 257.587 1089.03 261.616 1089.03 266.587 1089.03 271.558 1093.05 275.587 1098.03 275.587 1103 275.587 1107.03 271.558 1107.03 266.587 1107.03 261.616 1103 257.587 1098.03 257.587Z" fill="#000000" fill-rule="nonzero" fill-opacity="1"/><path d="M1111.56 281.667C1109.62 280.513 1107.51 279.665 1105.31 279.151 1102.94 278.439 1100.49 278.043 1098.02 277.973 1095.56 277.979 1093.11 278.374 1090.76 279.144 1087.65 279.994 1084.72 281.396 1082.1 283.283 1080.79 284.282 1080.01 285.833 1080 287.483L1080 296 1082 296 1082 287.49C1082 286.471 1082.48 285.512 1083.29 284.89 1085.72 283.141 1088.44 281.842 1091.34 281.056 1093.49 280.346 1095.74 279.981 1098 279.972 1100.31 280.043 1102.59 280.416 1104.8 281.083 1107.48 281.71 1110.01 282.872 1112.23 284.5 1111.88 283.59 1111.66 282.637 1111.56 281.667Z" fill="#000000" fill-rule="nonzero" fill-opacity="1"/><path d="M1149.34 232C1149.4 232.002 1149.45 232.051 1149.45 232.111L1149.45 257.9C1149.45 257.954 1149.41 258.001 1149.36 258.01L1125.04 258.01 1124.45 258.61 1119.59 263.56 1119.59 258.008 1111.6 258.008C1111.55 258.008 1111.5 257.953 1111.5 257.868L1111.5 232.1C1111.5 232.052 1111.53 232.01 1111.58 232L1149.34 232M1149.36 230 1111.59 230C1110.43 230.011 1109.5 230.955 1109.51 232.111L1109.51 257.868C1109.48 259.027 1110.41 259.986 1111.57 260.008L1117.59 260.008 1117.59 268.451 1125.88 260.008 1149.36 260.008C1150.52 259.997 1151.45 259.056 1151.45 257.898L1151.45 232.111C1151.45 230.953 1150.52 230.012 1149.36 230Z" fill="#000000" fill-rule="nonzero" fill-opacity="1"/><path d="M1130.38 234.883 1130.28 234.883C1130.04 234.87 1129.81 234.87 1129.58 234.883 1126.41 235.073 1123.96 237.737 1124.03 240.911L1124.03 241.033 1126.04 241.033 1126.04 240.906C1126.04 240.755 1126.04 240.604 1126.06 240.453 1126.24 238.433 1127.93 236.886 1129.96 236.894 1130.07 236.893 1130.18 236.898 1130.28 236.909L1130.44 236.909C1132.74 236.949 1134.58 238.845 1134.54 241.146 1134.54 243.458 1132.84 245.012 1130.3 245.012L1129.3 245.012 1129.3 249.93 1131.31 249.93 1131.31 246.964 1131.62 246.926C1134.52 246.569 1136.66 244.056 1136.56 241.138L1136.56 241C1136.51 237.616 1133.76 234.894 1130.38 234.883Z" fill="#000000" fill-rule="nonzero" fill-opacity="1"/><path d="M1130.3 255C1129.39 255.001 1128.66 254.266 1128.66 253.359 1128.66 252.452 1129.39 251.716 1130.3 251.716 1131.2 251.715 1131.93 252.437 1131.94 253.335 1131.96 254.236 1131.24 254.982 1130.34 255 1130.34 255 1130.34 255 1130.34 255Z" fill="#000000" fill-rule="nonzero" fill-opacity="1"/></g></g></g></g></g></svg>