<svg width="97" height="98" xmlns="http://www.w3.org/2000/svg" xmlns:xlink="http://www.w3.org/1999/xlink" xml:space="preserve" overflow="hidden"><g transform="translate(-400 -26)"><g><g><g><g><path d="M439 43 444 43 444 47 439 47Z" fill="#000000" fill-rule="nonzero" fill-opacity="1"/><path d="M427 67 432 67 432 71 427 71Z" fill="#000000" fill-rule="nonzero" fill-opacity="1"/><path d="M415 91 420 91 420 95 415 95Z" fill="#000000" fill-rule="nonzero" fill-opacity="1"/><path d="M439 91 444 91 444 95 439 95Z" fill="#000000" fill-rule="nonzero" fill-opacity="1"/><path d="M463 91 468 91 468 95 463 95Z" fill="#000000" fill-rule="nonzero" fill-opacity="1"/><path d="M460 47.073C459.294 47.4946 458.625 47.9754 458 48.51L458 62 453.163 62C453.28 62.6775 453.444 63.3459 453.656 64L470 64 470 73.759C470.678 73.6375 471.346 73.4677 472 73.251L472 62 460 62Z" fill="#000000" fill-rule="nonzero" fill-opacity="1"/><path d="M482 99.705 482 110 460 110 460 88 475.011 88 474.605 87.317C474.358 86.9002 474.155 86.4588 474 86L472 86 472 81.533C471.344 81.669 470.676 81.772 470 81.849L470 86 448 86 448 70.821C447.181 69.4236 446.517 67.9416 446.018 66.401 446.008 66.37 446 66.371 446 66.401L446 86 424 86 424 64 445.385 64C445.251 63.344 445.149 62.676 445.074 62L436 62 436 40 456.229 40C457.43 39.3066 458.692 38.7264 460 38.267L460 38 434 38 434 62 422 62 422 86 410 86 410 112 484 112 484 101.718C483.204 101.189 482.524 100.504 482 99.705ZM434 110 412 110 412 88 434 88ZM458 110 436 110 436 88 458 88Z" fill="#000000" fill-rule="nonzero" fill-opacity="1"/><path d="M493.428 92.549 486.21 80.419C484.899 78.4798 482.382 77.767 480.249 78.731L478.393 75.616C487.222 69.5738 489.482 57.518 483.44 48.6887 477.397 39.8593 465.342 37.5999 456.512 43.6421 447.683 49.6843 445.423 61.7401 451.466 70.5694 457.071 78.7605 467.961 81.3898 476.686 76.659L478.528 79.75C477.773 80.3809 477.201 81.2028 476.872 82.13 476.423 83.3328 476.538 84.6734 477.183 85.783L484.4 97.914C485.243 99.256 486.734 100.05 488.318 100 489.354 99.994 490.369 99.709 491.257 99.175 492.409 98.5072 493.288 97.4534 493.738 96.2 494.186 94.9979 494.073 93.6583 493.428 92.549ZM450.022 61.292C449.033 51.6777 456.026 43.0823 465.64 42.0936 475.254 41.1049 483.85 48.0973 484.838 57.7116 485.827 67.3259 478.835 75.9213 469.22 76.91 468.03 77.0324 466.83 77.0324 465.64 76.91 457.395 76.0544 450.878 69.5372 450.022 61.292ZM491.849 95.546C491.552 96.3513 490.98 97.0261 490.235 97.452 488.693 98.367 486.847 98.115 486.119 96.891L478.9 84.761C478.561 84.1566 478.509 83.4322 478.76 82.786 479.057 81.9811 479.628 81.3066 480.373 80.881 480.956 80.5276 481.624 80.3373 482.306 80.33 483.18 80.2858 484.011 80.7088 484.49 81.441L491.707 93.572C492.047 94.1757 492.099 94.8998 491.849 95.546Z" fill="#000000" fill-rule="nonzero" fill-opacity="1"/></g></g></g></g></g></svg>