<svg width="81" height="83" xmlns="http://www.w3.org/2000/svg" xmlns:xlink="http://www.w3.org/1999/xlink" xml:space="preserve" overflow="hidden"><g transform="translate(-412 -249)"><g><g><g><g><path d="M23.625 35.4375 57.375 35.4375 57.375 37.125 23.625 37.125Z" fill="#000000" fill-rule="nonzero" fill-opacity="1" transform="matrix(1 0 0 1.01235 412 250)"/><path d="M23.625 28.6875 39.6562 28.6875 39.6562 30.375 23.625 30.375Z" fill="#000000" fill-rule="nonzero" fill-opacity="1" transform="matrix(1 0 0 1.01235 412 250)"/><path d="M23.625 42.1875 57.375 42.1875 57.375 43.875 23.625 43.875Z" fill="#000000" fill-rule="nonzero" fill-opacity="1" transform="matrix(1 0 0 1.01235 412 250)"/><path d="M23.625 48.9375 57.375 48.9375 57.375 50.625 23.625 50.625Z" fill="#000000" fill-rule="nonzero" fill-opacity="1" transform="matrix(1 0 0 1.01235 412 250)"/><path d="M23.625 55.6875 57.375 55.6875 57.375 57.375 23.625 57.375Z" fill="#000000" fill-rule="nonzero" fill-opacity="1" transform="matrix(1 0 0 1.01235 412 250)"/><path d="M23.625 62.4375 57.375 62.4375 57.375 64.125 23.625 64.125Z" fill="#000000" fill-rule="nonzero" fill-opacity="1" transform="matrix(1 0 0 1.01235 412 250)"/><path d="M15.1875 6.75 15.1875 74.25 65.8125 74.25 65.8125 24.9632 47.5993 6.75ZM48.1081 9.64491 62.9176 24.4544C62.9209 24.4577 62.9208 24.4631 62.9175 24.4663 62.9159 24.4678 62.9139 24.4688 62.9117 24.4688L48.0938 24.4688 48.0938 9.65081C48.0938 9.64617 48.0976 9.64246 48.1023 9.64246 48.1045 9.64254 48.1066 9.64339 48.1081 9.64491ZM16.875 72.5625 16.875 8.4375 46.4062 8.4375 46.4062 26.1562 64.125 26.1562 64.125 72.5625Z" fill="#000000" fill-rule="nonzero" fill-opacity="1" transform="matrix(1 0 0 1.01235 412 250)"/></g></g></g></g></g></svg>