<?xml version="1.0" encoding="UTF-8"?>
<svg id="Layer_1" data-name="Layer 1" xmlns="http://www.w3.org/2000/svg" version="1.1" viewBox="0 0 95 118.8">
  <defs>
    <style>
      .cls-1 {
        fill: #000;
        stroke-width: 0px;
      }
    </style>
  </defs>
  <path class="cls-1" d="M93.1,52.5c-.7-.9-2.9-2.8-7.6-.2l-28.5,15.5c-4.9,1.3-10.1,1.7-15.1,1.2.5,0,1.1-.2,1.7-.3,10.8-1.7,15.5-2.7,16.8-4,1.6-1.6,1.9-4,.9-6-1.2-2.3-3.8-3.3-7-2.8l-14.4,1.1c-2.4.1-4.7-.4-6.8-1.6-2.8-1.4-5.7-2.8-14.3-.5-1.5.5-3,1-4.4,1.7-.5.2-1,.4-1.5.7l-.2-1.8c0-.7-.7-1.3-1.4-1.2,0,0,0,0,0,0l-9.1.8c-.7,0-1.2.6-1.2,1.3v30.6c0,.7.7,1.3,1.4,1.3h.1l11.6-1c.7,0,1.3-.7,1.2-1.4l-.2-1.9c4.5.5,7.8,1.1,10.8,1.6,3.7.8,7.4,1.2,11.2,1.2,2.1,0,4.2-.1,6.3-.4,10.1-1.1,13.5-3.3,18.7-6.8l.7-.4c12.9-8.4,28.6-19,29.5-20,1.9-2,2.3-5,.9-6.8ZM3.7,85.5v-28c0,0,6.5-.6,6.5-.6l2.3,27.8-8.9.7ZM90.4,57.4c-1,.9-13.8,9.6-29.1,19.6l-.7.4c-5.1,3.3-8.1,5.3-17.6,6.4-7.4.8-11.1.1-16.7-.9-2.9-.5-6.5-1.2-11.4-1.7l-1.8-21.3c.8-.3,1.6-.7,2.4-1,1.3-.6,2.6-1.1,4-1.6,7.7-2.1,9.9-1,12.5.3,2.5,1.4,5.3,2,8.1,1.8,0,0,0,0,0,0l14.5-1.1s0,0,0,0c2-.3,3.6.2,4.3,1.4.5,1,.3,2.2-.5,2.9-1.2,1-10.4,2.5-15.3,3.2-3.8.6-7,1.1-8.5,1.5-.7.2-1.1.9-.9,1.6.1.4.5.8.9.9,7.6,2.2,15.6,2.2,23.2.2.1,0,.2,0,.3-.1l28.6-15.6c2-1.1,3.6-1.3,4.2-.5.6,1.1.3,2.5-.6,3.4h0ZM9.4,79.2c0,.7-.5,1.4-1.2,1.4h-.1c-.7,0-1.3-.5-1.3-1.2l-.3-3.1c0-.7.5-1.4,1.2-1.4s1.4.5,1.4,1.2l.3,3.1ZM50.7,51c12.2,0,22.2-9.9,22.2-22.2,0-12.2-9.9-22.2-22.2-22.2-12.2,0-22.2,9.9-22.2,22.2h0c0,12.2,9.9,22.1,22.2,22.2ZM50.7,9.4c10.8,0,19.5,8.7,19.5,19.5s-8.7,19.5-19.5,19.5-19.5-8.7-19.5-19.5c0-10.8,8.7-19.5,19.5-19.5ZM53.5,33.8v-.7c0-2-1-2.4-3.2-2.9-2.1-.5-5.2-1.2-5.2-5.4v-.7c0-2.5,1.7-4.7,4.2-5.3v-2.1c0-.7.6-1.3,1.3-1.3s1.3.6,1.3,1.3v2.1c2.4.6,4.2,2.8,4.2,5.3,0,.7-.6,1.3-1.3,1.4s-1.3-.6-1.4-1.3c0,0,0,0,0,0,0-1.6-1.3-2.9-2.8-2.9s-2.9,1.3-2.9,2.9h0v.7c0,2,1,2.4,3.2,2.9,2.1.5,5.2,1.2,5.2,5.4v.7c0,2.5-1.7,4.7-4.2,5.3v2.1c0,.7-.6,1.3-1.3,1.3s-1.3-.6-1.3-1.3v-2.1c-2.4-.6-4.2-2.8-4.2-5.3,0-.7.6-1.3,1.3-1.3s1.3.6,1.3,1.3c0,1.6,1.3,2.8,2.9,2.8s2.8-1.3,2.8-2.9Z"/>
</svg>