<?xml version="1.0" encoding="UTF-8"?>
<svg id="Layer_1" data-name="Layer 1" xmlns="http://www.w3.org/2000/svg" version="1.1" viewBox="0 0 95 118.8">
  <defs>
    <style>
      .cls-1 {
        fill: #000;
        stroke-width: 0px;
      }
    </style>
  </defs>
  <path class="cls-1" d="M93.7,7.2c-.2-.3-.6-.4-1-.5l-11.9-.4c-.7,0-1.3.5-1.4,1.3v2.8c-4.8,0-10.8-.8-16.5-1.8-9.1-1.4-17.8-2.8-21.8-.1-9.4,6.3-22.9,17.6-23.6,18.9-2.1,3.5-2.1,7.5,0,9.3.7.6,1.7,1,2.7,1,1.8-.1,3.4-.8,4.7-2l5.3-4.2c-2.4,11,4.6,21.9,15.6,24.3,11,2.4,21.9-4.6,24.3-15.6,0-.4.2-.8.2-1.2,1.7,0,3.5-.2,5.2-.4,1-.2,1.9-.4,2.8-.7v.8c0,.7.5,1.3,1.2,1.4l9.3.3h0c.7,0,1.2-.5,1.3-1.2l3.7-30.9c0-.4,0-.7-.3-1ZM50.2,53.5c-9.8,0-17.8-8-17.7-17.8,0-1.9.3-3.9,1-5.7,1.1,2,3.4,3.2,6.4,3.1l5.4.3c.6,2.7,3,3.3,4.7,3.7,2,.5,2.8.7,2.8,2.5v.6c0,1.4-1.1,2.5-2.4,2.5s-2.5-1.1-2.5-2.4c0,0,0,0,0,0,0-.7-.6-1.3-1.3-1.4s-1.3.6-1.4,1.3c0,0,0,0,0,0,0,2.3,1.6,4.4,3.8,5v1.8c0,.7.6,1.3,1.3,1.3s1.3-.6,1.3-1.3v-1.8c2.2-.6,3.8-2.6,3.8-5v-.6c0-3.9-2.9-4.6-4.8-5.1-.9,0-1.7-.4-2.4-1l6.4.3c2.4.1,4.7,1,6.7,2.4,1.9,1.4,4.2,2.3,6.5,2.5-1.4,8.6-8.8,14.8-17.5,14.8ZM75.2,35.8c-8,1.2-10.1-.2-12.6-1.8-2.3-1.7-5.1-2.7-7.9-2.8h0l-14.8-.7h-.1c-2.1,0-3.7-.7-4.2-2-.4-1.1,0-2.2.8-2.9.2-.1,1.1-.5,5.7-.9,3.1-.2,6.8-.4,10.2-.5,3.9-.1,7.2-.3,8.8-.5.7-.1,1.2-.8,1-1.6-.1-.7-.8-1.1-1.5-1-1.4.2-4.8.4-8.4.5-11.1.4-16,.8-17.4,2-.7.6-1.3,1.4-1.6,2.3l-9.8,7.8c-1.7,1.4-3.2,1.8-4,1.1-1-.8-1.1-3.4.4-5.9,1.1-1.3,13.5-11.9,22.9-18.1,3.2-2.1,11.7-.8,19.9.5,5.8.9,11.8,1.9,16.7,1.8l-.8,22c-1.1.4-2.2.6-3.3.8ZM87.8,37.6l-6.8-.2,1-28.4,9.1.3-3.4,28.3ZM84.5,18.1v-3.1c.1-.7.8-1.3,1.5-1.3.7,0,1.3.6,1.3,1.4v3.1c-.1.7-.7,1.3-1.4,1.3h0c-.7,0-1.3-.6-1.3-1.4,0,0,0,0,0,0h0ZM80,62.5l-27,10.7c-4.7.7-9.6.4-14.2-.8,11.5-1.8,16.4-2.9,17.6-3.9,1.6-1.3,2.2-3.5,1.5-5.4-.8-2.2-3.1-3.5-6.1-3.4,0,0,0,0-.1,0l-12.9,1.9c-2.1-.1-4-.9-5.7-2.1-2.4-1.5-4.8-3.1-12.8-2-1.4.3-2.8.6-4.1,1.1-.4.1-.8.3-1.2.4v-1.4c0-.7-.5-1.3-1.2-1.4l-8.2-.3c-.7,0-1.3.5-1.4,1.2l-3.3,27.3c0,.7.4,1.4,1.2,1.5,0,0,0,0,.1,0l10.5.4h0c.7,0,1.3-.6,1.3-1.3v-1.5c3.9.9,6.8,1.8,9.3,2.6,5,1.7,10.2,2.7,15.5,2.7.3,0,.7,0,1,0,8.3,0,11.6-1.6,16.4-4l.6-.3c12.4-6.1,27.5-13.8,28.4-14.6,1.9-1.6,2.6-4.3,1.5-6.1-.4-.7-2.2-3-6.9-1.1h0ZM11.5,83.5l-7.7-.3,2.9-24.6,5.7.2-.9,24.7ZM83.8,67.7c-1,.7-13.4,7.1-28,14.3l-.6.3c-4.8,2.4-7.8,3.9-16.2,3.7-6.7,0-9.9-1.1-14.8-2.6-2.5-.8-5.7-1.7-9.9-2.7l.7-19c.7-.2,1.4-.4,2.1-.6,1.2-.4,2.4-.7,3.7-1,7-1,8.8.2,11,1.6,2.1,1.5,4.5,2.4,7,2.5.1,0,.2,0,.3,0l12.9-1.9c1.7,0,3,.6,3.5,1.7.3.9,0,1.8-.7,2.4-.2.1-1.3.7-7.9,2-4,.7-8.4,1.4-11.4,1.9-1,.2-1.8.3-2.3.4-.7.1-1.2.8-1.1,1.5,0,.4.4.8.8,1,6.5,2.8,13.7,3.7,20.7,2.7.1,0,.2,0,.3,0l27.2-10.8c1.8-.7,3.2-.7,3.7,0,.3,1,0,2.1-.9,2.8ZM6.9,78.3v-2.8c.1-.7.8-1.3,1.5-1.3.7,0,1.3.6,1.3,1.4v2.8c-.1.7-.7,1.3-1.4,1.3h0c-.7,0-1.3-.6-1.3-1.4,0,0,0,0,0,0Z"/>
</svg>