<svg width="97" height="97" xmlns="http://www.w3.org/2000/svg" xmlns:xlink="http://www.w3.org/1999/xlink" xml:space="preserve" overflow="hidden"><g transform="translate(-400 -140)"><g><g><g><g><path d="M470.025 185.015 470.025 173.031C470.025 161.419 460.611 152.005 448.999 152.005 437.387 152.005 427.973 161.419 427.973 173.031L427.973 185.014 420.997 185.514 420.997 223.523 448.997 225.523 476.997 223.523 476.997 185.512ZM429.973 173.031C429.973 162.523 438.491 154.005 448.999 154.005 459.507 154.005 468.025 162.523 468.025 173.031L468.025 184.881 465 184.679 465 173.006C465 164.169 457.837 157.006 449 157.006 440.163 157.006 433 164.169 433 173.006L433 184.679 429.975 184.879ZM463 184.539 449 183.512 435 184.539 435 173.006C435 165.274 441.268 159.006 449 159.006 456.732 159.006 463 165.274 463 173.006ZM475 221.661 449 223.519 423 221.661 423 187.375 428.134 187.008 434.147 186.608 449 185.517 463.867 186.608 469.858 187.008 475 187.375Z" fill="#000000" fill-rule="nonzero" fill-opacity="1"/><path d="M449 196.516C445.117 196.532 441.983 199.692 441.999 203.575 442.01 206.273 443.565 208.727 446 209.89L446 215.521 452 215.521 452 209.866C454.418 208.667 455.962 206.216 456 203.518 455.996 199.653 452.865 196.521 449 196.516ZM450.635 208.288 450 208.537 450 213.521 448 213.521 448 208.508 447.328 208.275C444.711 207.362 443.329 204.5 444.242 201.883 445.155 199.266 448.017 197.884 450.634 198.797 452.643 199.498 453.992 201.39 454 203.518 453.956 205.646 452.624 207.534 450.634 208.288Z" fill="#000000" fill-rule="nonzero" fill-opacity="1"/></g></g></g></g></g></svg>